<svg width="21" height="19" viewBox="0 0 21 19" fill="none" xmlns="http://www.w3.org/2000/svg">
<path d="M8.49299 0.692627C4.34689 0.692627 0.889648 3.54388 0.889648 7.15547C0.889648 9.00308 1.90089 10.6135 3.33716 11.7889C3.24368 12.4133 2.98982 13.0028 2.6004 13.4997C2.44141 13.7036 2.27504 13.9017 2.10162 14.0935C2.01192 14.188 1.93218 14.2914 1.86364 14.4022C1.8203 14.4729 1.75263 14.552 1.72145 14.7117C1.69028 14.8713 1.73286 15.1321 1.86364 15.3291L1.95868 15.4956L2.14876 15.5906C2.81405 15.9229 3.53257 15.8643 4.19254 15.6857C4.85175 15.5062 5.48587 15.199 6.09338 14.8774C6.70088 14.5558 7.27722 14.2205 7.73266 13.9749C7.79653 13.9407 7.83758 13.9323 7.89917 13.9034C9.09822 15.5518 11.2941 16.6596 13.7439 16.6596C13.7674 16.6627 13.7895 16.6596 13.8153 16.6596C14.8038 16.6596 17.9972 19.9245 19.898 18.632C19.974 18.3286 18.2268 17.5675 18.1394 15.3055C19.6273 14.254 20.5876 12.6899 20.5876 10.9571C20.5876 8.39329 18.553 6.275 15.8355 5.51619C14.9756 2.71816 11.986 0.692627 8.49299 0.692627ZM8.49299 2.2133C11.9502 2.2133 14.5757 4.53232 14.5757 7.15547C14.5757 9.77862 11.9502 12.0976 8.49299 12.0976C7.8756 12.0976 7.52128 12.3501 7.01946 12.6208C6.51764 12.8914 5.94207 13.226 5.38018 13.5233C4.89357 13.7803 4.42976 13.9779 4.00246 14.1171C4.41836 13.5164 4.85251 12.7264 4.92854 11.6224L4.95288 11.1944L4.59628 10.9336C3.24136 9.98391 2.41032 8.61759 2.41032 7.15547C2.41032 4.53232 5.03575 2.2133 8.49299 2.2133Z" fill="#E6E6E6"/>
</svg>
