<svg width="25" height="19" viewBox="0 0 25 19" fill="none" xmlns="http://www.w3.org/2000/svg">
<path d="M0.249025 2.09741C0.249025 1.54741 0.510426 1.07675 1.03323 0.685412C1.55603 0.294079 2.18526 0.0980788 2.92093 0.0974121L21.6242 0.0974121C22.359 0.0974121 22.9878 0.293412 23.5106 0.685412C24.0334 1.07741 24.2953 1.54808 24.2961 2.09741V16.0974C24.2961 16.6474 24.0343 17.1184 23.5106 17.5104C22.9869 17.9024 22.3581 18.0981 21.6242 18.0974H2.92093C2.18615 18.0974 1.55692 17.9017 1.03323 17.5104C0.509535 17.1191 0.248135 16.6481 0.249025 16.0974V2.09741ZM9.26473 2.09741C8.71245 2.09741 8.26473 2.54513 8.26473 3.09741V15.0974C8.26473 15.6497 8.71245 16.0974 9.26473 16.0974H20.6242C21.1765 16.0974 21.6242 15.6497 21.6242 15.0974V3.09741C21.6242 2.54513 21.1765 2.09741 20.6242 2.09741L9.26473 2.09741ZM5.59283 3.09741C5.59283 2.54513 5.14511 2.09741 4.59283 2.09741H3.92093C3.36864 2.09741 2.92093 2.54513 2.92093 3.09741V15.0974C2.92093 15.6497 3.36864 16.0974 3.92093 16.0974H4.59283C5.14511 16.0974 5.59283 15.6497 5.59283 15.0974V3.09741Z" fill="#E6E6E6"/>
</svg>
