<svg width="20" height="18" viewBox="0 0 20 18" fill="none" xmlns="http://www.w3.org/2000/svg">
<path d="M0.228027 6.87676C0.228027 6.10619 0.534135 5.36718 1.07901 4.82231C1.62389 4.27743 2.36289 3.97133 3.13346 3.97133H4.10194V3.00285C4.10194 2.23228 4.40805 1.49327 4.95293 0.948395C5.4978 0.40352 6.23681 0.0974121 7.00738 0.0974121H12.8183C13.5888 0.0974121 14.3278 0.40352 14.8727 0.948395C15.4176 1.49327 15.7237 2.23228 15.7237 3.00285V3.97133H16.6922C17.4627 3.97133 18.2017 4.27743 18.7466 4.82231C19.2915 5.36718 19.5976 6.10619 19.5976 6.87676V14.6246C19.5976 15.3952 19.2915 16.1342 18.7466 16.679C18.2017 17.2239 17.4627 17.53 16.6922 17.53H3.13346C2.36289 17.53 1.62389 17.2239 1.07901 16.679C0.534135 16.1342 0.228027 15.3952 0.228027 14.6246V6.87676ZM16.6922 5.90828H3.13346C2.87661 5.90828 2.63027 6.01032 2.44865 6.19195C2.26702 6.37357 2.16498 6.61991 2.16498 6.87676V9.7822H6.0389V8.81372C6.0389 8.55686 6.14094 8.31053 6.32256 8.1289C6.50419 7.94728 6.75052 7.84524 7.00738 7.84524C7.26424 7.84524 7.51057 7.94728 7.6922 8.1289C7.87382 8.31053 7.97586 8.55686 7.97586 8.81372V9.7822H11.8498V8.81372C11.8498 8.55686 11.9518 8.31053 12.1334 8.1289C12.3151 7.94728 12.5614 7.84524 12.8183 7.84524C13.0751 7.84524 13.3214 7.94728 13.5031 8.1289C13.6847 8.31053 13.7867 8.55686 13.7867 8.81372V9.7822H17.6606V6.87676C17.6606 6.61991 17.5586 6.37357 17.377 6.19195C17.1954 6.01032 16.949 5.90828 16.6922 5.90828ZM11.8498 11.7192H7.97586V12.6876C7.97586 12.9445 7.87382 13.1908 7.6922 13.3725C7.51057 13.5541 7.26424 13.6561 7.00738 13.6561C6.75052 13.6561 6.50419 13.5541 6.32256 13.3725C6.14094 13.1908 6.0389 12.9445 6.0389 12.6876V11.7192H2.16498V14.6246C2.16498 14.8814 2.26702 15.1278 2.44865 15.3094C2.63027 15.491 2.87661 15.5931 3.13346 15.5931H16.6922C16.949 15.5931 17.1954 15.491 17.377 15.3094C17.5586 15.1278 17.6606 14.8814 17.6606 14.6246V11.7192H13.7867V12.6876C13.7867 12.9445 13.6847 13.1908 13.5031 13.3725C13.3214 13.5541 13.0751 13.6561 12.8183 13.6561C12.5614 13.6561 12.3151 13.5541 12.1334 13.3725C11.9518 13.1908 11.8498 12.9445 11.8498 12.6876V11.7192ZM6.0389 3.00285V3.97133H13.7867V3.00285C13.7867 2.74599 13.6847 2.49966 13.5031 2.31803C13.3214 2.13641 13.0751 2.03437 12.8183 2.03437H7.00738C6.75052 2.03437 6.50419 2.13641 6.32256 2.31803C6.14094 2.49966 6.0389 2.74599 6.0389 3.00285Z" fill="#E6E6E6"/>
</svg>
