<svg width="21" height="23" viewBox="0 0 21 23" fill="none" xmlns="http://www.w3.org/2000/svg">
<path d="M12.0601 20.0649L19.8261 12.1129M14.8261 5.81287L6.4121 14.3989C6.03716 14.7739 5.82653 15.2825 5.82653 15.8129C5.82653 16.3432 6.03716 16.8518 6.4121 17.2269C6.78716 17.6018 7.29577 17.8124 7.8261 17.8124C8.35643 17.8124 8.86504 17.6018 9.2401 17.2269L17.6541 8.64087C18.404 7.89076 18.8252 6.87352 18.8252 5.81287C18.8252 4.75221 18.404 3.73498 17.6541 2.98487C16.904 2.23498 15.8868 1.81372 14.8261 1.81372C13.7654 1.81372 12.7482 2.23498 11.9981 2.98487L3.5831 11.5699C2.45779 12.6952 1.82559 14.2214 1.82559 15.8129C1.82559 17.4043 2.45779 18.9306 3.5831 20.0559C4.70841 21.1812 6.23467 21.8134 7.8261 21.8134C9.41753 21.8134 10.9438 21.1812 12.0691 20.0559" stroke="#222522" stroke-width="2" stroke-linecap="round" stroke-linejoin="round"/>
</svg>
