<svg width="24" height="24" viewBox="0 0 24 24" fill="none" xmlns="http://www.w3.org/2000/svg">
<path d="M13.234 20.252L21 12.3M16 6L7.58599 14.586C7.21105 14.9611 7.00042 15.4697 7.00042 16C7.00042 16.5303 7.21105 17.0389 7.58599 17.414C7.96104 17.7889 8.46966 17.9996 8.99999 17.9996C9.53032 17.9996 10.0389 17.7889 10.414 17.414L18.828 8.828C19.5779 8.07789 19.9991 7.06066 19.9991 6C19.9991 4.93934 19.5779 3.92211 18.828 3.172C18.0779 2.42212 17.0606 2.00085 16 2.00085C14.9393 2.00085 13.9221 2.42212 13.172 3.172L4.75699 11.757C3.63168 12.8823 2.99948 14.4086 2.99948 16C2.99948 17.5914 3.63168 19.1177 4.75699 20.243C5.8823 21.3683 7.40856 22.0005 8.99999 22.0005C10.5914 22.0005 12.1177 21.3683 13.243 20.243" stroke="#E6E6E6" stroke-width="2" stroke-linecap="round" stroke-linejoin="round"/>
</svg>
